<?xml version="1.0" encoding="utf-8"?>
<!-- Generator: Adobe Illustrator 16.0.0, SVG Export Plug-In . SVG Version: 6.00 Build 0)  -->
<!DOCTYPE svg PUBLIC "-//W3C//DTD SVG 1.1//EN" "http://www.w3.org/Graphics/SVG/1.1/DTD/svg11.dtd">
<svg version="1.1" id="Capa_1" xmlns="http://www.w3.org/2000/svg" xmlns:xlink="http://www.w3.org/1999/xlink" x="0px" y="0px"
	 width="269px" height="69px" viewBox="0 0 269 69" enable-background="new 0 0 269 69" xml:space="preserve">
<g id="sinhco-final">
	<g id="sinhco-lower">
		<path display="none" fill="#446CB3" d="M15.774,55.502c2.019,3.764,5.417,7.346,11.937,7.346c4.775,0,8.816-2.754,8.816-7.622
			c0-11.02-23.968-7.255-23.968-23.417c0-8.082,6.704-12.949,15.336-12.949c8.908,0,13.499,5.602,14.785,9.184l-5.326,3.03
			c-1.285-2.572-3.765-6.153-9.918-6.153c-4.407,0-7.897,2.479-7.897,6.612c0,10.744,24.06,6.705,24.06,23.327
			c0,8.446-6.979,14.14-16.254,14.14c-10.01,0-14.509-5.693-16.622-10.192L15.774,55.502z"/>
		<path fill="#446CB3" d="M160.902,38.154V68h-7.256V37.881c0-7.623-4.866-12.215-11.295-12.215
			c-7.346,0-12.488,5.417-12.488,13.315V68h-7.255V1.606h7.255v25.528c2.296-4.315,7.62-8.081,14.141-8.081
			C155.116,19.054,160.902,27.318,160.902,38.154z"/>
		<path fill="#446CB3" d="M208.34,30.625c-1.928-2.02-6.887-6.061-14.141-6.061c-10.01,0-17.082,7.989-17.082,18.366
			c0,10.287,7.438,18.459,17.265,18.459c7.53,0,12.305-4.408,14.234-6.336l2.205,6.151c-1.93,2.021-7.808,6.796-16.714,6.796
			c-14.234,0-24.52-10.927-24.52-25.07c0-14.142,10.561-25.069,24.427-25.069c8.724,0,14.325,4.132,16.807,6.52L208.34,30.625z"/>
		<path fill="#446CB3" d="M241.787,17.86c14.418,0,24.886,10.744,24.886,25.07c0,14.325-10.652,25.069-24.979,25.069
			c-14.325,0-24.885-10.561-24.885-25.069C216.81,28.513,227.553,17.86,241.787,17.86z M241.694,61.389
			c10.286,0,17.633-7.806,17.633-18.458c0-10.561-7.347-18.458-17.633-18.458c-10.284,0-17.447,7.989-17.447,18.458
			C224.247,53.674,231.502,61.389,241.694,61.389z"/>
		<g>
			<path fill="#446CB3" d="M52.467,20.055h7.254v47.752h-7.254V20.055z"/>
			<path fill="#446CB3" d="M91.114,18.86c11.112,0,20.172,8.265,20.172,19.101v29.846h-7.255V37.688
				c0-7.623-6.396-12.215-12.917-12.215"/>
			<path fill="#446CB3" d="M91.114,25.473c-6.52,0-12.175,4.592-12.175,12.215v30.119h-7.255V37.961
				c0-10.836,8.318-19.101,19.43-19.101"/>
		</g>
	</g>
	<path fill="#EC644B" d="M24.299,25.679c12.229,0,20.666,8.722,20.666,21.044C44.965,59.331,36.716,69,24.205,69
		C11.406,69,5.247,61.037,3.255,54.498l6.636-2.371c1.61,5.405,5.875,9.767,14.029,9.767c8.34,0,13.271-6.542,13.271-14.789
		c0-8.153-5.119-14.789-13.935-14.79 M5.814,35.539L7.236,1.413h33.84v7.015H14.156"/>
</g>
</svg>
